<svg width="178" height="64" viewBox="0 0 178 64" fill="none" xmlns="http://www.w3.org/2000/svg">
<g clip-path="url(#clip0_201_164)">
<path d="M164.412 58.505C153.479 58.0194 139.279 59.1891 128.595 56.916C122.651 55.6581 116.368 54.0029 111.015 54.0912C104.799 54.1794 102.281 55.636 98.7654 56.916C98.4251 57.0484 98.0395 57.0925 97.6992 56.9601C97.3816 56.8498 97.2002 56.4967 96.928 56.2981C94.8184 54.5987 92.0963 53.6277 89.1474 53.6498C89.0794 53.6498 89.034 53.6498 88.9659 53.6498C88.9206 53.6498 88.8752 53.6498 88.8298 53.6498C86.017 53.6719 83.8167 54.2677 81.0493 56.2981C80.7771 56.4967 80.5956 56.8498 80.278 56.9601C79.9378 57.0925 79.5522 57.0263 79.2119 56.916C75.7186 55.636 73.178 54.1794 66.9626 54.0912C61.5866 54.0029 55.3258 55.6581 49.3827 56.916C38.6986 59.1891 24.4985 58.0194 13.5649 58.505C8.48371 58.7256 2.79007 59.7629 -0.0454102 63.8898C1.17952 64.3312 2.49518 63.6029 3.65205 63.007C10.1396 59.6305 17.8975 59.9615 25.2471 60.0498C35.4775 60.1822 45.6852 59.7629 55.8702 58.7918C63.4693 58.0636 71.6128 57.0925 78.3499 60.6015C79.0985 60.9987 79.8697 61.4401 80.709 61.4181C81.6617 61.396 82.4557 60.8222 83.2723 60.3587C84.9282 59.4098 86.8337 58.9022 88.7391 58.9022C88.7391 58.9022 88.7391 58.9022 88.7391 58.8801C90.6219 58.9463 93.0717 59.476 94.6142 60.3587C95.4308 60.8222 96.2474 61.4181 97.1775 61.4181C98.0168 61.4401 98.788 60.9767 99.5366 60.6015C106.274 57.1146 114.417 58.0636 122.016 58.7918C132.179 59.785 142.409 60.2043 152.639 60.0498C159.989 59.9394 167.747 59.6305 174.234 63.007C175.391 63.6029 176.707 64.3312 177.932 63.8898C175.187 59.7629 169.494 58.7256 164.412 58.505Z" fill="white"/>
<path d="M170.174 57.225C167.996 54.1574 165.456 51.3767 162.598 48.927C162.28 48.6622 161.94 48.3753 161.531 48.265C161.169 48.1546 160.806 48.1767 160.443 48.1988C147.604 49.0153 135.876 47.6029 123.423 44.4029C120.791 43.7188 116.209 42.5932 113.51 42.1739C105.23 40.8939 94.4781 43.4539 90.5992 48.7505C90.0547 49.5008 89.6691 50.1629 90.1682 50.9574C92.1417 48.8608 94.9998 46.7201 98.2209 45.6608C103.325 43.9836 109.926 43.6746 115.188 44.756C129.615 47.6912 143.997 50.5381 158.9 50.0084C159.445 49.9863 160.012 49.9643 160.511 50.1629C160.919 50.3174 163.437 51.9726 163.755 52.2595C166.25 54.3781 167.996 56.7174 169.698 57.7326C170.015 57.9091 170.401 57.5339 170.174 57.225Z" fill="white"/>
<path d="M86.9243 48.7505C83.0453 43.4539 73.6088 40.8057 65.3293 42.0857C62.6299 42.505 56.7321 43.7188 54.1008 44.4029C51.6282 45.0429 49.201 45.5946 46.7739 46.0802C45.4128 46.345 44.0745 46.6098 42.7135 46.8305C34.2978 48.2429 25.9501 48.7505 17.0807 48.1988C16.7178 48.1767 16.3322 48.1546 15.9919 48.265C15.5836 48.3753 15.2434 48.6622 14.9258 48.927C12.0676 51.3767 9.50435 54.1795 7.34939 57.225C7.14523 57.5339 7.50817 57.9091 7.82575 57.7105C9.52703 56.6953 11.2737 54.356 13.7689 52.2374C14.0865 51.9505 16.6044 50.2953 17.0127 50.1408C17.5344 49.9643 18.0788 49.9864 18.6232 49.9864C27.1751 50.2953 35.5681 49.4788 43.893 48.1767C44.0745 48.1546 44.5055 48.0884 44.687 48.0443C50.5848 47.0953 56.4599 45.9257 62.335 44.7339C67.5976 43.6746 74.1986 43.9836 79.3025 45.6388C82.5463 46.6981 85.4044 48.8388 87.3553 50.9353C87.8316 50.1629 87.4687 49.5008 86.9243 48.7505Z" fill="white"/>
<path d="M89.8052 18.2951C89.5103 17.8096 89.7371 17.4124 90.0774 16.9489C92.4138 13.7048 98.8787 12.1379 103.869 12.9324C105.48 13.1972 108.247 13.8813 109.835 14.3007C117.321 16.2648 124.398 17.1255 132.133 16.6179C132.36 16.5958 132.587 16.5958 132.791 16.662C133.041 16.7282 133.245 16.9048 133.426 17.0593C135.15 18.56 134.787 17.9641 136.08 19.84C136.216 20.0165 135.989 20.2593 135.785 20.1489C134.765 19.531 135.604 20.3917 134.107 19.1117C133.903 18.9351 132.405 17.92 132.156 17.8317C131.838 17.7213 131.521 17.7213 131.18 17.7434C122.22 18.0744 113.555 16.3089 104.845 14.5213C101.669 13.8593 97.6991 14.0579 94.6141 15.0731C92.7087 15.7131 90.9847 17.0151 89.8052 18.2951Z" fill="white"/>
<path d="M87.8544 16.9491C85.5179 13.705 79.8243 12.0939 74.8565 12.8664C73.246 13.1312 69.6846 13.8595 68.0968 14.2788C60.6111 16.2429 53.5338 17.1036 45.7986 16.596C45.5717 16.5739 45.3449 16.5739 45.1407 16.6401C44.8912 16.7064 44.6871 16.8829 44.5056 17.0374C42.7816 18.5381 43.1446 18.185 41.8289 20.0388C41.6928 20.2153 41.9196 20.4581 42.1238 20.3477C43.1446 19.7298 42.3053 20.3698 43.8024 19.0677C44.0065 18.8912 45.5037 17.876 45.7532 17.7877C46.0708 17.6774 46.3883 17.6774 46.7286 17.6995C55.6887 18.0305 64.3539 16.265 73.0645 14.4774C76.2403 13.8153 80.2099 14.0139 83.2949 15.0291C85.2457 15.6691 86.9697 16.9933 88.1493 18.2733C88.3988 17.8098 88.172 17.4126 87.8544 16.9491Z" fill="white"/>
<path d="M93.9565 51.4868C93.9565 51.4868 94.3195 51.1779 95.0454 50.7144C95.4083 50.4937 95.8393 50.2289 96.361 49.942C96.8828 49.6772 97.4725 49.3682 98.1531 49.0813C98.8109 48.7944 99.5594 48.5075 100.353 48.2427C101.147 47.9779 101.987 47.7351 102.894 47.5365C103.348 47.4482 103.801 47.3379 104.255 47.2496C104.482 47.2055 104.709 47.1613 104.958 47.1172C105.185 47.0731 105.435 47.051 105.661 47.0068C106.138 46.9406 106.614 46.8965 107.09 46.8524C107.567 46.8082 108.066 46.7862 108.542 46.7641C109.019 46.7641 109.518 46.72 109.994 46.742C110.47 46.7641 110.969 46.742 111.446 46.7641C112.398 46.8082 113.351 46.8965 114.259 46.9848C114.712 47.051 115.166 47.0951 115.597 47.1613C116.028 47.2275 116.459 47.3158 116.867 47.382C117.276 47.4482 117.684 47.5586 118.047 47.6248C118.228 47.6689 118.432 47.7131 118.614 47.7572C118.795 47.8013 118.977 47.8455 119.158 47.8896C119.521 47.9779 119.839 48.0662 120.179 48.1544C120.497 48.2427 120.792 48.331 121.086 48.4193C121.653 48.5958 122.153 48.7282 122.538 48.8827C123.332 49.1696 123.786 49.3241 123.786 49.3241C123.786 49.3241 123.332 49.1917 122.515 48.9489C122.107 48.8165 121.608 48.6841 121.041 48.5517C120.474 48.3972 119.816 48.2427 119.113 48.0882C118.931 48.0441 118.75 47.9999 118.568 47.9779C118.387 47.9337 118.206 47.9117 118.001 47.8675C117.616 47.8013 117.23 47.7131 116.822 47.6468C116.414 47.5806 115.983 47.5144 115.552 47.4482C115.121 47.4041 114.667 47.3379 114.236 47.2937C113.329 47.2055 112.398 47.1393 111.446 47.0951C110.969 47.0731 110.493 47.0731 110.017 47.0731C109.54 47.0731 109.064 47.0951 108.565 47.1172C108.089 47.1393 107.612 47.1613 107.113 47.2055C106.637 47.2496 106.16 47.2937 105.684 47.36C105.208 47.4262 104.754 47.4924 104.3 47.5586C103.847 47.6248 103.393 47.7351 102.939 47.8234C102.055 48.022 101.215 48.2206 100.421 48.4855C99.6275 48.7282 98.9016 48.9931 98.2211 49.2579C97.5406 49.5227 96.9508 49.8096 96.4291 50.0524C95.9074 50.3172 95.4537 50.56 95.0907 50.7586C94.7278 50.9793 94.4556 51.1558 94.2514 51.2662C94.0473 51.4206 93.9565 51.4868 93.9565 51.4868Z" fill="white"/>
<path d="M96.7466 53.142C96.7466 53.142 97.0415 52.8772 97.6312 52.502C97.9261 52.3254 98.2891 52.1048 98.6974 51.862C99.1284 51.6413 99.6047 51.3765 100.149 51.1558C100.694 50.913 101.306 50.6923 101.941 50.4716C102.599 50.251 103.28 50.0523 104.028 49.8758C104.391 49.7875 104.777 49.6992 105.14 49.6551C105.321 49.611 105.525 49.5889 105.707 49.5448C105.911 49.5227 106.092 49.5006 106.296 49.4565C106.682 49.3903 107.09 49.3682 107.476 49.3241C107.884 49.302 108.27 49.2579 108.678 49.2358C109.472 49.2137 110.289 49.2137 111.06 49.2358C111.854 49.2579 112.625 49.3461 113.374 49.4123C113.737 49.4565 114.1 49.5006 114.463 49.5668C114.826 49.633 115.166 49.6992 115.506 49.7434C115.846 49.8096 116.164 49.8758 116.482 49.942C116.799 50.0082 117.094 50.0744 117.389 50.1627C117.684 50.2289 117.956 50.3172 118.228 50.3834C118.5 50.4496 118.727 50.5379 118.977 50.6041C119.43 50.7365 119.839 50.8689 120.179 50.9792C120.837 51.222 121.2 51.3544 121.2 51.3544C121.2 51.3544 120.814 51.2441 120.156 51.0454C119.816 50.9351 119.408 50.8468 118.954 50.7144C118.478 50.582 117.956 50.4717 117.366 50.3392C117.071 50.273 116.776 50.2068 116.459 50.1627C116.141 50.0965 115.824 50.0303 115.483 49.9861C115.143 49.942 114.803 49.8758 114.44 49.8317C114.077 49.7875 113.714 49.7434 113.351 49.6992C112.603 49.633 111.854 49.5668 111.06 49.5448C110.289 49.5227 109.495 49.5227 108.701 49.5448C108.315 49.5668 107.907 49.5889 107.521 49.611C107.136 49.6551 106.727 49.6772 106.365 49.7434C105.593 49.8316 104.845 49.9641 104.119 50.1185C103.393 50.273 102.712 50.4496 102.055 50.6482C101.397 50.8468 100.807 51.0675 100.24 51.2661C99.6955 51.4868 99.1964 51.7075 98.7654 51.9061C98.3344 52.1048 97.9715 52.3034 97.6539 52.4799C97.0642 52.9213 96.7466 53.142 96.7466 53.142Z" fill="white"/>
<path d="M58.8418 49.2139C58.8418 49.2139 59.1821 48.9932 59.7945 48.7063C60.1121 48.5518 60.4977 48.3974 60.9514 48.2208C61.4051 48.0443 61.9268 47.8677 62.4939 47.7132C63.061 47.5587 63.6961 47.4043 64.3766 47.2718C65.0572 47.1394 65.7604 47.0291 66.5089 46.9629C66.8719 46.9408 67.2575 46.8967 67.6431 46.8746C67.8473 46.8746 68.0287 46.8525 68.2329 46.8525C68.4371 46.8525 68.6185 46.8525 68.8227 46.8525C69.2083 46.8525 69.6166 46.8746 70.0022 46.8746C70.4106 46.8967 70.7962 46.9187 71.2045 46.9629C71.9984 47.0512 72.7923 47.1394 73.5636 47.2718C74.3348 47.4043 75.0834 47.5808 75.8093 47.7574C76.1722 47.8677 76.5352 47.956 76.8754 48.0443C77.2157 48.1546 77.556 48.265 77.8735 48.3753C78.1911 48.4856 78.5087 48.596 78.8036 48.7063C79.0985 48.8167 79.3933 48.927 79.6656 49.0374C79.9378 49.1477 80.21 49.2581 80.4595 49.3684C80.709 49.4787 80.9358 49.5891 81.1627 49.6774C81.5937 49.876 81.9793 50.0525 82.2969 50.207C82.9093 50.516 83.2723 50.7146 83.2723 50.7146C83.2723 50.7146 82.9093 50.5601 82.2742 50.2732C81.9566 50.1187 81.571 49.9643 81.1173 49.7877C80.6636 49.6112 80.1646 49.4125 79.5975 49.2139C79.3253 49.1036 79.0304 49.0153 78.7128 48.905C78.4179 48.8167 78.1004 48.6843 77.7601 48.596C77.4425 48.5077 77.1023 48.3974 76.762 48.3091C76.4218 48.2208 76.0588 48.1325 75.6959 48.0443C74.97 47.8677 74.2214 47.7132 73.4502 47.5808C72.6789 47.4484 71.9077 47.3601 71.1137 47.2718C70.7281 47.2498 70.3198 47.2056 69.9342 47.1836C69.5486 47.1836 69.1403 47.1394 68.7546 47.1615C67.9834 47.1615 67.2121 47.1836 66.4636 47.2498C65.715 47.316 65.0118 47.3822 64.354 47.4925C63.6735 47.6029 63.061 47.7353 62.4712 47.8677C61.9041 48.0001 61.3824 48.1546 60.906 48.3091C60.4523 48.4636 60.044 48.596 59.7265 48.7284C59.1821 49.0153 58.8418 49.2139 58.8418 49.2139Z" fill="white"/>
<path d="M60.8379 51.5532C60.8379 51.5532 61.1328 51.3546 61.6772 51.0897C61.9494 50.9573 62.2897 50.8028 62.698 50.6484C63.1063 50.4939 63.5599 50.3394 64.059 50.1849C64.558 50.0525 65.1251 49.898 65.7149 49.7877C66.3047 49.6773 66.9398 49.567 67.5977 49.5228C67.9379 49.5008 68.2555 49.4566 68.5958 49.4566C68.936 49.4346 69.2763 49.4346 69.6165 49.4346C69.9568 49.4346 70.3197 49.4566 70.66 49.4566C71.0002 49.4787 71.3632 49.5008 71.7034 49.5228C72.4066 49.5891 73.1098 49.6773 73.7903 49.8097C74.4709 49.9201 75.1287 50.0746 75.7865 50.2511C76.1041 50.3394 76.4217 50.4277 76.7166 50.5159C77.0115 50.6042 77.3063 50.7146 77.6012 50.8028C77.8961 50.8911 78.1683 51.0015 78.4179 51.0897C78.6901 51.178 78.9396 51.2884 79.1891 51.3766C79.4386 51.487 79.6655 51.5753 79.8923 51.6635C80.1191 51.7518 80.3233 51.8622 80.5048 51.9504C80.8904 52.127 81.2306 52.2815 81.5028 52.436C82.0473 52.7228 82.3422 52.8773 82.3422 52.8773C82.3422 52.8773 82.0246 52.7449 81.4575 52.5022C81.1853 52.3697 80.845 52.2373 80.4367 52.0828C80.0511 51.9284 79.5974 51.7518 79.0984 51.5753C78.8488 51.487 78.5993 51.3987 78.3271 51.3104C78.0549 51.2222 77.7827 51.1339 77.4878 51.0456C77.1929 50.9573 76.898 50.8691 76.6031 50.8028C76.3083 50.7366 75.9907 50.6484 75.6731 50.5601C75.038 50.4056 74.3801 50.2732 73.6996 50.1628C73.0191 50.0525 72.3386 49.9642 71.6354 49.898C71.2951 49.876 70.9322 49.8539 70.5919 49.8318C70.2517 49.8318 69.9114 49.8097 69.5712 49.8097C68.8906 49.8097 68.2101 49.8318 67.575 49.8759C66.9172 49.9422 66.3047 49.9863 65.7149 50.0966C65.1251 50.1849 64.5807 50.2953 64.059 50.4277C63.0382 50.6704 62.2216 50.9573 61.6545 51.178C61.1555 51.3766 60.8379 51.5532 60.8379 51.5532Z" fill="white"/>
<path d="M98.9468 54.4439C98.9468 54.4439 99.1963 54.2453 99.6953 53.9143C99.9449 53.7598 100.24 53.5833 100.625 53.4067C100.807 53.3184 100.988 53.2081 101.215 53.1198C101.419 53.0315 101.646 52.9212 101.873 52.8329C102.1 52.7226 102.349 52.6564 102.599 52.546C102.848 52.4577 103.121 52.3474 103.393 52.2812C103.665 52.1929 103.96 52.1046 104.255 52.0164C104.55 51.9281 104.845 51.8839 105.162 51.7957C105.48 51.7295 105.775 51.6412 106.115 51.5971C106.432 51.5529 106.773 51.4867 107.09 51.4426C107.249 51.4205 107.431 51.3984 107.589 51.3984C107.748 51.3764 107.93 51.3764 108.088 51.3543C108.429 51.3322 108.769 51.2881 109.086 51.2881C109.427 51.2881 109.767 51.2881 110.107 51.2881C110.266 51.2881 110.447 51.2881 110.606 51.2881H110.856L111.105 51.3102C111.446 51.3322 111.763 51.3543 112.081 51.3764C112.239 51.3984 112.398 51.3984 112.557 51.4205C112.716 51.4205 112.875 51.4426 113.033 51.4646C113.669 51.5529 114.258 51.6412 114.825 51.7295C115.393 51.8398 115.914 51.9722 116.413 52.0826C116.663 52.1488 116.89 52.1929 117.117 52.2371C117.343 52.2812 117.548 52.3695 117.729 52.4357C118.115 52.5681 118.455 52.6784 118.727 52.7667C119.294 52.9433 119.612 53.0536 119.612 53.0536C119.612 53.0536 119.294 52.9653 118.727 52.8329C118.455 52.7667 118.092 52.6784 117.706 52.5681C117.502 52.5239 117.298 52.4577 117.071 52.4136C116.844 52.3695 116.617 52.3253 116.368 52.2812C115.869 52.1929 115.347 52.0826 114.78 51.9943C114.213 51.9281 113.623 51.8619 112.988 51.7736C112.376 51.7074 111.718 51.7074 111.06 51.6633L110.81 51.6412H110.561C110.402 51.6412 110.221 51.6412 110.062 51.6412C109.722 51.6412 109.404 51.6412 109.064 51.6412C108.724 51.6633 108.406 51.6853 108.066 51.7074C107.907 51.7295 107.725 51.7295 107.567 51.7515C107.408 51.7736 107.249 51.7736 107.068 51.7957C106.432 51.906 105.775 51.9502 105.162 52.1046C104.867 52.1708 104.55 52.2371 104.255 52.3033C103.96 52.3695 103.688 52.4577 103.415 52.5239C103.143 52.5902 102.871 52.6784 102.622 52.7667C102.372 52.855 102.123 52.9212 101.896 53.0095C101.442 53.186 101.011 53.3405 100.648 53.5171C100.285 53.6715 99.9675 53.8481 99.6953 53.9805C99.4458 54.135 99.2417 54.2233 99.1056 54.3115C99.0148 54.3777 98.9468 54.4439 98.9468 54.4439Z" fill="white"/>
<path d="M36.0675 30.6317C35.1602 29.9476 31.9844 29.5062 31.9844 29.44C31.9844 29.44 34.7518 27.9173 35.4777 27.1669C36.2036 26.4166 36.7934 25.5559 36.8841 24.6069C37.0202 23.2828 36.4531 22.2676 35.2055 21.6055C33.9579 20.9435 32.2113 20.7007 29.9429 20.8993C29.6026 20.9214 26.0639 21.429 24.7029 21.5393C23.3419 21.6497 21.8447 21.76 21.1415 21.8041C21.0962 22.1573 20.9828 22.6648 20.9828 22.6648C21.8901 22.5766 22.5026 22.6207 22.8201 22.8635C23.1377 23.1062 23.2738 23.6138 23.1604 24.3421C22.8428 26.3062 21.2323 34.1186 21.1415 34.6041C20.5744 37.8924 19.4403 39.8124 17.8978 39.9669C17.739 39.989 17.6256 39.989 17.5575 39.989C17.4894 39.989 17.3987 39.989 17.3307 39.989C17.2853 40.3641 17.2399 40.5186 17.1719 40.8938C18.0112 40.7614 19.9393 40.4966 21.2323 40.3862C22.5479 40.2759 26.6537 40.011 27.1754 39.9669C29.9656 39.7241 32.4381 38.9517 34.2074 37.8041C35.9768 36.6566 37.0202 35.0897 37.1563 33.4345C37.3151 32.1766 36.9749 31.3159 36.0675 30.6317ZM26.4496 22.709C26.5857 22.5545 28.9448 22.2897 29.285 22.2455C30.8502 22.1131 31.8483 22.3779 32.6876 22.9297C33.5269 23.4814 33.6857 24.3421 33.5723 25.4235C33.5042 26.1076 33.0732 26.8138 32.5969 27.4317C32.1205 28.0276 31.2358 28.7779 30.4873 29.0428C30.1017 29.1973 25.1566 29.6166 25.1112 29.5724C25.0885 29.5504 25.3381 28.4028 25.6556 26.6814C25.8371 25.6441 25.9732 24.4524 26.132 23.6138C26.2 23.1724 26.3815 22.7531 26.4496 22.709ZM33.8445 33.7435C33.7084 35.0235 32.9598 36.3035 31.8483 37.12C30.7368 37.9366 28.9221 38.4883 27.0393 38.6428C26.4269 38.6869 23.7048 38.6648 23.5687 38.4883C23.478 38.3559 23.8636 36.2593 24.2039 34.3393C24.5214 32.5076 24.7936 30.8745 24.839 30.8304C24.9751 30.6979 26.7445 30.5655 27.1301 30.5214C29.4892 30.3007 31.4173 30.411 32.4835 30.9628C33.595 31.5366 33.9806 32.3752 33.8445 33.7435Z" fill="white"/>
<path d="M44.8009 30.0357C44.9596 28.6232 45.436 24.9377 45.5041 24.5846C45.5494 24.2315 45.6855 23.8122 45.7763 23.6577C45.9124 23.415 46.1619 23.2163 46.4568 23.106C46.7517 22.9957 47.16 22.9294 47.7271 22.8853C47.8178 22.8853 47.9312 22.8853 47.9312 22.8853C47.9539 22.7088 47.9766 22.4439 47.9993 22.2012C47.3188 22.2674 46.6836 22.3336 46.0711 22.3777C45.4587 22.4219 44.9143 22.466 44.4379 22.5101C43.8708 22.5543 43.281 22.5763 42.6686 22.6205C42.0561 22.6426 41.5571 22.6646 40.9673 22.6646C40.9446 22.9294 40.8992 23.0839 40.8765 23.3488C40.9673 23.3488 41.0807 23.3267 41.1714 23.3267C41.7385 23.2826 42.0561 23.3046 42.3283 23.3708C42.6005 23.4591 42.782 23.6357 42.8727 23.8563C42.9408 24.0329 42.9181 24.2536 42.9181 24.695C42.9181 25.1363 42.4871 28.6453 42.3283 29.9032C42.1468 31.1612 41.6932 34.626 41.6024 35.0674C41.5117 35.5088 41.3075 36.0163 41.1714 36.215C41.0353 36.4136 40.7858 36.546 40.4909 36.6343C40.196 36.7446 39.765 36.8108 39.2206 36.855C39.1072 36.855 39.0845 36.855 38.9711 36.877C38.9484 37.186 38.9031 37.3184 38.8804 37.6274C39.6063 37.5391 40.3095 37.4729 40.9673 37.4067C41.6251 37.3405 42.2149 37.2963 42.7593 37.2743C43.213 37.2522 43.7574 37.2081 44.4152 37.186C45.0731 37.1639 45.7082 37.1419 46.4795 37.1198C46.5021 36.8108 46.5248 36.6784 46.5475 36.3694C46.4341 36.3694 46.4341 36.3694 46.3207 36.3694C45.7763 36.4136 45.3453 36.3915 45.0504 36.3253C44.7555 36.2591 44.5513 36.1488 44.4379 35.9722C44.3472 35.8177 44.3245 35.7074 44.3018 35.3543C44.2111 34.5157 44.6421 31.4481 44.8009 30.0357Z" fill="white"/>
<path d="M62.6982 29.5947C61.9496 29.0209 59.3637 28.5354 59.341 28.4912C59.341 28.4912 61.4959 27.3436 62.0177 26.7919C62.5621 26.2181 62.8796 25.5119 62.9023 24.7616C62.925 23.7023 62.5167 22.9298 61.4733 22.3561C60.4525 21.7823 59.1368 21.5836 57.3221 21.6719C57.0499 21.694 56.6643 21.7161 55.7569 21.7823C54.8723 21.8485 54.1464 21.9147 53.5339 21.9367C52.9895 21.9588 52.3997 22.003 51.8553 22.003C51.3109 22.025 50.7665 22.025 50.2221 22.025C50.1994 22.3119 50.1767 22.5326 50.154 22.7092C50.517 22.6871 50.4489 22.665 51.0387 22.7312C51.9914 22.8195 51.9007 23.614 51.8099 24.8498C51.5831 28.0498 50.6757 33.9202 50.5623 34.3395C50.2221 35.5974 49.6323 36.2595 48.8157 36.3036C48.7023 36.3036 48.6115 36.3036 48.5435 36.3036C48.4754 36.3036 48.43 36.3036 48.362 36.3036C48.3393 36.5905 48.2939 37.0098 48.2939 37.0098C48.9518 36.9436 49.5869 36.8995 50.1087 36.8554C50.6304 36.8112 51.0614 36.7892 51.3563 36.7671C52.0821 36.723 52.9668 36.7009 54.0783 36.6788C55.1671 36.6567 55.8023 36.6347 56.2106 36.6126C58.4109 36.5023 60.203 36.0167 61.5413 35.1561C62.8796 34.2954 63.5828 33.2361 63.6509 31.934C63.7416 30.963 63.4467 30.1685 62.6982 29.5947ZM54.5093 22.9519C54.6227 22.8416 55.1445 22.8195 55.4847 22.7754C55.8477 22.7312 56.1652 22.7092 56.4374 22.6871C57.6851 22.6209 58.6831 22.7533 59.3637 23.2167C60.0669 23.6802 60.3844 24.2761 60.3391 25.1367C60.3164 25.6885 60.1122 26.2843 59.7493 26.7478C59.409 27.2112 58.7512 27.8733 58.1841 28.0719C57.8892 28.1823 57.4128 28.1823 56.9819 28.2264C56.5509 28.2705 56.0745 28.2926 55.5755 28.3147C55.0991 28.3367 54.7588 28.3588 54.5093 28.3588C54.2825 28.3588 53.8969 28.403 53.8515 28.3588C53.8288 28.3147 54.3732 23.2167 54.5093 22.9519ZM59.6812 34.5381C58.8419 35.134 57.6851 35.5092 56.2106 35.5754C55.7342 35.5974 55.2806 35.5974 54.7815 35.5533C54.2825 35.5092 53.3751 35.5092 53.2617 35.3547C53.0802 35.134 53.3071 33.9643 53.3751 33.1036C53.4205 32.6843 53.5112 31.8898 53.5793 31.0733C53.67 30.2126 53.7381 29.3519 53.7834 29.3298C53.8742 29.2416 55.462 29.1974 55.7569 29.1754C57.617 29.0871 58.9553 29.2636 59.84 29.7271C60.7247 30.2126 61.0876 30.9188 61.0423 31.9781C61.0196 33.0154 60.5205 33.9202 59.6812 34.5381Z" fill="white"/>
<path d="M77.7602 34.1405C77.057 34.4936 75.5599 34.6922 73.1327 34.7364C72.7244 34.7364 70.9097 34.7584 70.3879 34.7364C70.524 32.1543 70.8416 25.9529 70.8643 25.1364C70.887 23.7902 71.1138 22.7529 71.3634 22.3778C71.6129 22.0026 72.0665 21.7819 72.7697 21.7819C72.9285 21.7819 73.042 21.7819 73.2007 21.7598C73.2007 21.4729 73.2007 21.3626 73.2007 21.0757C72.6563 21.1198 72.248 21.164 71.6809 21.186C71.1365 21.2081 70.5694 21.2302 70.0023 21.2522C69.7074 21.2522 69.3218 21.2743 68.8228 21.2522C68.3464 21.2522 67.6205 21.2522 66.6905 21.2302C66.6905 21.5171 66.6678 21.6495 66.6451 21.9364C66.6905 21.9364 66.8039 21.9364 66.8266 21.9364C67.5752 21.9143 67.9608 22.1129 68.2103 22.466C68.4598 22.8412 68.5052 23.7019 68.4371 24.9598C68.2784 27.8509 68.0515 30.3226 68.0061 31.2715C67.8474 33.986 67.1668 35.4646 65.9419 35.5088C65.8285 35.5088 65.5563 35.5088 65.4882 35.5088C65.4882 35.7957 65.4429 35.906 65.4429 36.1929C66.7585 36.1046 67.8927 36.0384 69.6394 35.9722C71.386 35.906 73.5864 35.884 74.8567 35.884C76.127 35.884 78.5768 36.2371 79.0305 35.906C79.212 35.7736 79.3707 34.8026 79.5976 34.2067C79.8017 33.6109 80.142 32.8826 80.4142 32.2646C80.0286 32.1764 79.8698 32.1322 79.4842 32.044C79.0985 33.0812 78.4634 33.7874 77.7602 34.1405Z" fill="white"/>
<path d="M95.7035 32.1988C95.3179 33.1699 94.7054 33.8761 94.0022 34.2071C93.299 34.5381 91.8472 34.6706 89.5562 34.6706C88.853 34.6706 88.422 34.6485 87.8549 34.6264C87.2651 34.6044 86.2897 34.6485 86.1763 34.5602C86.0402 34.4278 86.1309 33.0375 86.1536 31.5809C86.1763 30.2126 86.199 28.6899 86.199 28.5133C86.5846 28.5133 88.5354 28.5354 89.5108 28.5354C91.1441 28.5354 92.1875 28.6457 92.6412 28.8664C93.0949 29.0871 93.231 29.4623 93.2537 30.0581C93.2537 30.1023 93.2537 30.1023 93.2537 30.1464C93.6166 30.1464 93.7754 30.1464 94.1156 30.1464C94.0929 30.0361 94.0703 29.8595 94.0476 29.6609C94.0022 29.374 93.9568 28.734 93.9795 28.0499C94.0022 27.2995 94.1156 26.505 94.1383 26.2623C93.7981 26.2402 93.662 26.2181 93.3217 26.1961C93.299 26.7037 93.0722 27.0568 92.6412 27.2333C92.2329 27.4099 91.3709 27.4981 90.0779 27.4981C89.8057 27.4981 89.284 27.4981 88.49 27.4761C87.6961 27.454 86.3578 27.454 86.199 27.454C86.199 27.2775 86.267 26.1078 86.2897 24.8499C86.3124 23.5478 86.2217 22.2678 86.3804 22.0692C86.4031 22.0471 88.9891 22.025 89.4881 22.025C91.4163 22.025 92.7546 22.2016 93.3444 22.4885C93.9342 22.7754 94.2291 23.3271 94.3425 24.1437C94.7054 24.1216 94.8415 24.1216 95.2045 24.0995C95.1137 23.5699 95.091 23.1064 95.023 22.5768C94.9549 22.0471 95.023 21.054 94.9096 20.9437C94.7281 20.7892 92.6866 21.0099 91.6885 21.0319C90.6904 21.054 89.6923 21.054 88.7169 21.054C87.8322 21.054 86.7888 21.054 85.5638 21.0319C84.3389 21.0099 83.3862 20.9878 81.8437 20.9657C81.8437 21.2306 81.8437 21.3409 81.8437 21.6278C81.889 21.6278 81.9117 21.6278 81.9571 21.6278C82.683 21.6278 83.1593 21.7381 83.4315 21.9588C83.7264 22.1795 83.7945 22.665 83.7945 23.2388C83.8172 23.9009 83.613 29.705 83.5677 31.1837C83.4996 33.8319 82.8645 35.2444 81.6622 35.2444C81.5488 35.2444 81.2993 35.2223 81.2539 35.2223C81.2539 35.5092 81.2539 35.6416 81.2539 35.9064C81.4581 35.9064 87.061 35.7299 88.422 35.7519C89.4201 35.7519 90.3048 35.774 91.5297 35.8181C92.7773 35.8402 95.0457 36.2595 95.454 35.9506C95.6128 35.8402 95.7716 34.8471 95.953 34.2733C96.1345 33.6995 96.4067 33.0816 96.6335 32.4857C96.2706 32.3754 96.0891 32.3092 95.7035 32.1988Z" fill="white"/>
<path d="M120.111 29.9036C119.249 29.2636 116.505 28.5574 116.505 28.4912C116.505 28.4912 118.523 27.498 119 26.9684C119.476 26.4387 119.703 25.7767 119.612 25.0263C119.499 23.967 118.932 23.1063 117.797 22.4222C116.663 21.7601 115.189 21.3849 113.351 21.3187C113.079 21.3187 112.489 21.2967 111.582 21.2967C110.675 21.2967 109.904 21.2967 109.291 21.2746C108.724 21.2525 108.18 21.2305 107.635 21.2084C107.091 21.1863 106.773 21.1643 106.206 21.1201C106.229 21.407 106.206 21.5394 106.229 21.8043C106.274 21.8043 106.297 21.8043 106.342 21.8043C107.068 21.8263 107.544 21.9367 107.839 22.1794C108.134 22.4222 108.293 22.7974 108.338 23.3712C108.384 24.0332 108.611 30.7643 108.633 31.4925C108.747 34.1629 108.225 35.5091 107 35.487C106.887 35.487 106.637 35.4649 106.569 35.4649C106.592 35.7518 106.592 35.9284 106.592 36.1932C106.773 36.1932 109.246 36.1932 109.563 36.1932C110.289 36.2153 111.514 36.3036 112.626 36.3698C113.76 36.458 114.463 36.4801 114.871 36.5022C117.117 36.5905 118.682 36.2153 119.93 35.4649C121.177 34.7146 121.699 33.6112 121.563 32.3091C121.427 31.316 120.973 30.5656 120.111 29.9036ZM110.788 25.4015C110.697 24.1877 110.493 22.6649 110.697 22.4443C110.788 22.356 112.467 22.356 112.739 22.356C114.009 22.4001 115.007 22.6649 115.779 23.1946C116.55 23.7243 116.958 24.4305 117.049 25.3132C117.094 25.8649 116.981 26.3505 116.686 26.7918C116.391 27.2332 115.869 27.807 115.325 27.9836C115.098 28.0718 114.554 28.0277 113.737 28.0056C112.467 27.9836 110.924 27.9174 110.902 27.8732C110.834 27.8512 110.879 26.6153 110.788 25.4015ZM117.866 34.6705C117.094 35.2001 116.028 35.487 114.508 35.4208C114.009 35.3987 113.646 35.3767 113.125 35.3105C112.603 35.2222 111.469 35.1339 111.333 34.9574C111.106 34.6705 111.174 33.5229 111.106 31.956C111.038 30.367 110.856 29.0208 110.97 28.8884C111.038 28.8001 111.922 28.8663 112.217 28.8884C112.535 28.8884 112.716 28.9105 113.034 28.9105C114.939 28.9767 116.255 29.2636 117.23 29.8374C118.206 30.3891 118.75 31.1836 118.841 32.2649C118.954 33.258 118.637 34.1187 117.866 34.6705Z" fill="white"/>
<path d="M136.965 36.0385C136.262 36.3475 134.742 36.3916 132.383 36.2371C131.68 36.193 131.113 36.1488 130.523 36.1047C129.933 36.0385 129.049 36.0385 128.912 35.9061C128.731 35.7295 128.686 34.5378 128.64 34.0081C128.595 33.4785 128.3 30.124 128.255 29.7709C128.663 29.793 128.844 29.815 129.253 29.8371C130.228 29.9033 130.614 29.9254 131.612 29.9916C133.29 30.1019 134.357 30.2785 134.833 30.5212C135.332 30.764 135.581 31.2054 135.672 31.8233C135.672 31.8675 135.672 31.8675 135.695 31.9116C136.058 31.9337 136.217 31.9116 136.557 31.9337C136.534 31.8233 136.262 30.4771 136.239 30.3006C136.194 29.9916 136.194 29.5723 136.171 29.1971C136.149 28.844 136.171 28.4468 136.171 28.0275C136.149 28.0054 136.126 28.0054 136.081 27.9833C135.786 27.9392 135.627 27.9171 135.309 27.873C135.355 28.3806 135.128 28.7116 134.719 28.8881C134.311 29.0426 133.472 29.0647 132.134 28.9764C131.861 28.9544 128.323 28.7116 128.141 28.7116C128.096 28.3364 128.05 27.3433 127.937 26.1295C127.824 24.9157 127.574 23.4371 127.733 23.2826C127.756 23.2606 128.05 23.3047 128.323 23.3047C129.661 23.3488 130.591 23.415 131.113 23.4371C133.109 23.5695 134.288 23.8123 134.924 24.1433C135.559 24.4744 135.944 25.0481 136.126 25.8868C136.489 25.8868 136.648 25.8868 137.011 25.8868C136.874 25.335 136.784 24.8716 136.648 24.3419C136.511 23.7902 136.489 22.775 136.353 22.6647C136.126 22.4881 134.243 22.5985 133.222 22.5323C132.202 22.4881 131.453 22.444 130.455 22.3999C129.548 22.3337 128.459 22.2454 127.211 22.1571C125.964 22.0688 124.534 21.9585 122.969 21.8481C122.992 22.113 123.015 22.2454 123.037 22.5102C123.083 22.5102 123.105 22.5102 123.151 22.5102C123.899 22.5544 124.376 22.6868 124.693 22.9295C125.011 23.1723 125.17 23.5475 125.238 24.1433C125.283 24.4964 125.464 26.593 125.646 28.5571C125.782 30.3006 125.895 31.6247 125.941 32.4192C126.145 35.1116 125.691 36.3475 124.444 36.2812C124.33 36.2812 124.081 36.2371 124.013 36.2371C124.035 36.524 124.035 36.6344 124.058 36.9212C124.149 36.9212 126.712 36.9875 129.071 37.1199C131.566 37.2523 133.857 37.4509 134.515 37.5171C135.786 37.6275 138.281 38.2233 138.644 37.9364C138.78 37.8261 138.825 36.8109 138.961 36.2371C139.097 35.6633 139.279 35.0675 139.46 34.4716C139.029 34.3392 138.848 34.273 138.44 34.1406C138.145 35.1116 137.668 35.7516 136.965 36.0385Z" fill="white"/>
<path d="M159.445 36.9213C159.127 38.1351 158.538 38.9075 157.676 39.2606C156.814 39.6137 155.203 39.6578 152.209 39.3709C151.301 39.2827 150.281 39.1503 149.532 39.062C148.783 38.9737 147.672 38.9296 147.49 38.753C147.241 38.5323 147.15 37.0978 147.037 36.4358C146.923 35.7737 146.629 33.5447 146.515 32.7723C146.402 31.9999 146.334 31.4482 146.266 31.0068C146.765 31.0509 147.014 31.073 147.513 31.1172C148.761 31.2275 149.146 31.2716 150.394 31.382C152.526 31.5806 154.023 31.8675 154.659 32.1985C155.294 32.5296 155.634 33.0813 155.77 33.8537C155.77 33.8978 155.793 33.9199 155.793 33.964C156.246 34.0082 156.451 34.0082 156.904 34.0523C156.859 33.8978 156.791 33.5889 156.723 33.302C156.519 32.5296 156.428 32.0441 156.383 31.8013C156.315 31.4041 156.292 30.9847 156.246 30.5213C156.201 30.0578 156.156 29.5944 156.133 29.0427C155.679 28.9765 155.521 28.9544 155.067 28.8882C155.135 29.5282 154.908 29.9475 154.432 30.124C153.933 30.3006 152.708 30.3006 151.006 30.1461C150.666 30.1241 147.309 29.7489 146.629 29.7047C146.402 29.6827 146.311 29.6827 146.084 29.6606C146.016 29.1972 145.903 28.0716 145.698 26.5489C145.494 25.0482 145.041 23.062 145.245 22.8854C145.267 22.8634 145.653 22.9075 145.993 22.9296C147.672 23.0399 148.534 23.1061 149.192 23.1723C151.71 23.393 153.524 23.7461 154.341 24.1875C155.18 24.6289 155.702 25.3792 155.997 26.4385C156.451 26.4606 156.655 26.4606 157.108 26.4827C156.882 25.7765 156.7 25.0261 156.496 24.342C156.315 23.6578 156.246 22.5765 156.042 22.422C155.747 22.1792 153.706 22.2454 152.413 22.1572C151.12 22.0689 149.827 21.9585 148.579 21.8482C147.445 21.7378 146.084 21.6275 144.496 21.473C142.931 21.3185 141.162 21.142 139.166 20.9434C139.211 21.2744 139.234 21.4509 139.279 21.804C139.324 21.804 139.37 21.804 139.415 21.804C140.345 21.8703 140.958 22.0468 141.366 22.3558C141.774 22.6647 142.001 23.1503 142.137 23.8785C142.205 24.2537 142.455 26.1958 142.727 28.3144C143.044 30.8082 143.385 33.5227 143.453 33.964C143.975 37.3627 143.43 39.2385 141.842 39.1061C141.683 39.084 141.57 39.084 141.502 39.062C141.434 39.062 141.343 39.0399 141.252 39.0178C141.298 39.3709 141.32 39.5254 141.389 39.9006C141.638 39.9227 142.114 39.9447 142.364 39.9668C146.266 40.1875 148.738 40.4082 150.507 40.5627C151.8 40.673 153.343 40.8716 154.953 41.0482C156.587 41.2468 159.49 42.0413 159.967 41.6882C160.125 41.5778 160.148 40.2316 160.284 39.5034C160.42 38.7972 160.579 38.0689 160.783 37.3406C160.216 37.1861 159.989 37.0978 159.445 36.9213Z" fill="white"/>
<path opacity="0.4" d="M38.1313 31.978C38.2901 32.4856 38.2448 33.0373 38.1767 33.6553C38.0179 35.2222 37.0198 36.9435 34.9783 38.3339C33.1636 39.5918 30.8498 40.3863 27.9463 40.6291C27.4699 40.6732 26.5626 40.7615 25.0201 40.8498C23.6817 40.938 22.5929 41.0042 21.6629 41.0925C21.2773 41.1366 20.7555 41.1808 20.0977 41.2691C19.4172 41.3573 16.6044 41.7767 16.6044 41.7767L16.8085 40.5408C16.7405 40.6732 16.6724 40.8056 16.6498 40.9601L16.4683 41.9091C16.4229 42.2401 16.5363 42.5711 16.7859 42.8139C16.99 43.0125 17.1942 43.0787 17.4891 43.0787C17.5344 43.0787 17.7159 43.0787 17.7839 43.0567C18.6232 42.9242 19.5987 42.7698 20.2565 42.6815C20.9143 42.5932 21.436 42.527 21.8217 42.5049C22.7517 42.4167 23.7725 42.3504 25.1108 42.2842C26.676 42.196 27.6287 42.1077 28.1051 42.0635C31.0767 41.7987 33.3677 40.938 35.2732 39.7022C37.3147 38.356 38.4716 36.436 38.6304 34.8029C38.7211 33.7215 38.6531 32.7725 38.1313 31.978Z" fill="white"/>
<path opacity="0.4" d="M37.8592 24.6734C37.7231 25.7769 37.1787 26.8362 36.3167 27.6528C35.9084 28.05 35.0691 28.6459 34.2524 29.1093C34.8649 29.2638 35.5908 29.3741 35.8403 29.5728C37.8365 28.2486 39.1295 25.3355 37.7911 23.1948C37.9272 23.6803 37.9272 24.1217 37.8592 24.6734Z" fill="white"/>
<path opacity="0.4" d="M22.7745 24.1214C22.8199 23.68 22.7292 23.4814 22.7292 23.4593C22.7292 23.4593 22.6158 23.2828 21.5496 23.3931L20.4608 23.4814L20.6196 22.3779C20.5515 22.5103 20.4835 22.5986 20.4608 22.7531L20.2793 23.7462C20.234 24.0772 20.3474 24.3641 20.5969 24.5848C20.8237 24.8276 21.1413 24.8497 21.4589 24.8055L21.595 24.7834C22.1621 24.7172 22.3662 24.7834 22.4797 24.8055C22.4797 24.8055 22.525 25.0041 22.5023 25.1366C22.3209 26.1959 21.595 30.0359 20.2793 36.4579C21.1413 33.0593 22.7292 24.4745 22.7745 24.1214Z" fill="white"/>
<path opacity="0.4" d="M51.1747 27.7185C51.2654 26.924 51.4469 24.7834 51.5149 24.1213C51.5376 23.9006 51.5149 23.702 51.4015 23.5916C51.2427 23.4372 50.9252 23.4151 50.4715 23.4371L49.6775 23.4813L49.791 22.5103C49.6775 22.6647 49.5868 22.8634 49.5641 23.062L49.4507 23.8344C49.428 24.1434 49.5641 24.4082 49.7683 24.6289C49.9951 24.8496 50.3127 24.9158 50.6303 24.8937H50.721C51.0613 24.8716 51.0839 24.8716 51.1974 24.8937C51.1974 24.9599 51.1974 25.0482 51.1974 25.2247C51.0839 26.3282 50.9025 28.6675 50.8117 29.484C50.6983 30.3006 50.5395 31.6027 50.4942 32.0882C50.4488 32.5516 50.3807 32.9489 50.3354 33.4344C50.29 33.8978 50.2446 34.0303 50.1993 34.3613C50.3807 33.8096 50.5849 32.8165 50.653 32.2427C50.6983 31.6468 51.0839 28.513 51.1747 27.7185Z" fill="white"/>
<path opacity="0.4" d="M62.8115 27.2775C62.5393 27.5644 62.0403 27.9175 61.5186 28.2265C62.1083 28.381 62.562 28.5355 62.9703 28.7341C63.0384 28.6899 63.0837 28.6237 63.1291 28.5796C63.855 27.8292 64.3087 26.8803 64.3313 25.8651C64.354 25.0486 64.2633 24.4086 63.8323 23.7686C63.923 24.0996 63.9457 24.541 63.9004 24.9161C63.855 25.8872 63.4694 26.5934 62.8115 27.2775Z" fill="white"/>
<path opacity="0.4" d="M64.6033 30.7861C64.7167 31.1613 64.7167 31.4923 64.7167 31.9337C64.6713 33.4123 63.7867 34.8468 62.2668 35.7737C60.8151 36.6565 58.9777 37.2523 56.6639 37.3627C56.2783 37.3848 55.5751 37.4068 54.3956 37.4068C53.3294 37.4289 52.4447 37.451 51.7189 37.4951C51.424 37.5172 51.0157 37.5392 50.4939 37.5834C49.9722 37.6275 49.3824 37.6716 48.7246 37.7379L47.8172 37.8261L47.9307 36.7889C47.908 36.833 47.8853 36.8551 47.8626 36.8992C47.8399 36.833 47.8172 36.7889 47.7719 36.7227C47.7265 36.6785 47.6131 36.5903 47.545 36.5461L47.3863 37.8261L46.8418 37.8482C46.0706 37.8703 45.3447 37.8923 44.7096 37.9144C44.0517 37.9365 43.5073 37.9806 43.0763 38.0027C42.5546 38.0468 41.9648 38.091 41.307 38.1351C40.6492 38.2013 39.9686 38.2675 39.2428 38.3558L38.3581 38.4441L38.4488 37.3627C38.3354 37.5172 38.2674 37.6937 38.2447 37.8923L38.1766 38.6427C38.1539 38.9517 38.1993 39.2827 38.4261 39.5034C38.6303 39.702 38.9932 39.8123 39.2654 39.8123C39.3108 39.8123 39.3562 39.8123 39.4015 39.8123C40.1274 39.7241 40.8079 39.6579 41.4658 39.5916C42.1236 39.5254 42.7134 39.4813 43.2124 39.4592C43.6434 39.4372 44.1878 39.393 44.8457 39.371C45.5035 39.3489 46.0252 39.3268 46.7738 39.3048C47.2048 39.3048 47.5904 39.062 47.7719 38.7089C47.8172 38.7751 47.8626 38.8413 47.9307 38.9075C48.1348 39.1061 48.3617 39.1723 48.6565 39.1723C48.9061 39.1723 50.1537 39.0399 50.6754 38.9958C51.1971 38.9516 51.6054 38.9296 51.8776 38.9075C52.6035 38.8634 53.4882 38.8413 54.5543 38.8192C55.7566 38.7972 56.4371 38.7751 56.8227 38.7751C59.2045 38.6648 61.0646 38.0689 62.5617 37.1199C64.2176 36.0606 65.125 34.582 65.1704 32.9268C65.1704 32.0882 65.0116 31.4703 64.6033 30.7861Z" fill="white"/>
<path opacity="0.4" d="M42.2144 26.9903C42.3051 26.1737 42.4185 25.3351 42.4412 24.9599C42.4639 24.5848 42.4639 24.2096 42.4185 24.1213C42.4185 24.1213 42.3958 24.0993 42.3505 24.0772C42.2597 24.0551 42.0102 23.9889 41.3524 24.0551L40.3089 24.1434L40.4223 23.1724C40.3089 23.3268 40.2409 23.5034 40.2409 23.68L40.1501 24.342C40.1274 24.651 40.1955 24.982 40.4223 25.2027C40.6492 25.4234 40.9667 25.5337 41.2843 25.5117L41.5112 25.4896C41.8741 25.4675 42.0329 25.4675 42.1463 25.4675C42.1463 25.5558 42.169 25.6441 42.1463 25.8648C42.1236 27.0565 41.2389 33.2137 41.1482 34.0524C41.0802 34.891 40.9667 35.2882 40.8987 35.6634C40.9441 35.5531 41.0121 35.3324 41.1255 34.9572C41.307 34.4055 42.1463 27.8068 42.2144 26.9903Z" fill="white"/>
<path opacity="0.4" d="M49.3599 23.989L49.428 23.371C49.4507 23.0621 49.3826 22.731 49.1558 22.5103C49.1104 22.4662 49.0424 22.4221 48.997 22.3779L48.8609 23.5476L48.0443 23.5917C47.4318 23.6359 47.1369 23.7021 46.9781 23.7683C46.774 23.8565 46.7059 23.9448 46.7059 23.9669C46.6833 23.989 46.5925 24.1214 46.5245 24.5407C46.4791 24.8717 46.3884 25.4676 46.2976 26.1959C46.2069 26.9241 45.8213 30.3448 45.481 32.9931C45.3222 34.2952 45.2769 35.1117 45.2769 35.1779C45.2995 35.4207 45.2995 35.531 45.3222 35.5972C45.3449 35.5972 45.3903 35.6193 45.4583 35.6414C45.5264 35.6634 45.6171 35.6634 45.7532 35.6855C45.7532 35.3986 45.8666 34.4497 46.0027 33.3462C46.1842 32.0883 46.3203 30.7641 46.4337 29.6828C46.5471 28.6014 46.6606 27.7628 46.7059 27.4317C46.774 26.7697 46.8874 26.0634 46.9555 25.7324C47.0008 25.4014 47.0689 25.2469 47.0689 25.2469C47.0689 25.2469 47.0916 25.2248 47.1596 25.2028C47.2503 25.1807 47.4999 25.0924 48.1123 25.0483L48.3392 25.0262C48.8836 24.9821 49.3146 24.5186 49.3599 23.989Z" fill="white"/>
<path opacity="0.4" d="M67.9608 25.8872C68.0288 24.9383 68.0742 24.0335 68.0061 23.4376C67.9607 23.0624 67.9154 22.93 67.8927 22.9079C67.802 22.7755 67.4844 22.6872 67.0307 22.7093L66.146 22.7314L66.2368 21.7383C66.1007 21.9148 65.9873 22.1355 65.9873 22.3783L65.9419 23.1286C65.9419 23.4155 66.0326 23.6583 66.2368 23.8569C66.4409 24.0555 66.6905 24.1659 67.008 24.1438C67.008 24.1438 67.5978 24.1659 67.6432 24.1879C67.6659 24.2541 67.7339 24.4748 67.7566 25.0266C67.7566 25.2693 67.6885 26.461 67.6659 26.9686C67.6432 27.4762 67.3937 31.0072 67.3937 31.0072C67.371 31.3604 67.3029 32.1328 67.2802 32.5521C67.2576 32.9714 67.1895 33.479 67.1214 33.8983C67.3256 33.3024 67.5524 32.2431 67.5751 31.1176C67.6205 30.4776 67.8927 26.8362 67.9608 25.8872Z" fill="white"/>
<path opacity="0.4" d="M73.1778 22.5107C72.883 22.5107 72.4066 22.5548 72.2705 22.7755C72.2251 22.8417 71.9756 23.2169 71.8849 24.9383L71.7941 26.9907L71.4766 34.0748C71.658 34.0748 71.7715 34.0748 71.9302 34.0748L72.2024 28.072L72.2932 26.0196C72.3612 24.4307 72.5881 24.0996 72.5881 24.0776C72.5881 24.0776 72.7242 23.9672 73.1325 23.9672H73.4954C74.0852 23.9672 74.5842 23.4817 74.6069 22.9079L74.6296 22.2017C74.6523 21.8927 74.5389 21.6279 74.312 21.4072C74.2667 21.3631 74.2213 21.341 74.1759 21.2969L74.1306 22.4886L73.1778 22.5107Z" fill="white"/>
<path opacity="0.4" d="M95.0677 29.5507C95.1131 29.9259 95.2038 30.8528 95.2038 30.8528L92.822 30.8969L92.7993 30.0803C92.7767 29.6169 92.6179 29.5507 92.5271 29.5065C92.391 29.4403 91.9373 29.2638 89.8051 29.2417C88.8523 29.2417 88.376 29.2417 87.4006 29.2417H87.1737C87.1284 31.0293 87.1284 33.2362 87.083 33.9203C87.2191 33.9203 87.5367 33.9203 87.5594 33.9203C87.5367 32.9934 87.5594 31.2059 87.5821 30.6762C88.444 30.6762 88.9204 30.6762 89.8278 30.6762C91.96 30.6762 92.3683 30.8748 92.4137 30.8969C92.4364 30.919 92.4818 30.8969 92.5044 31.1617V31.3383C92.5271 31.9121 92.9581 32.3093 93.5479 32.3093C93.5479 32.3093 93.5479 32.3093 93.5706 32.3093L94.4553 32.2872C94.7728 32.2872 95.045 32.1769 95.2719 31.9121C95.4987 31.6693 95.5441 31.3383 95.5441 31.0734L95.476 30.5879C95.408 29.9921 95.4307 28.9328 95.4533 28.6017C95.476 28.2486 95.5441 27.8072 95.5668 27.41C95.5894 27.1231 95.5441 26.9024 95.3626 26.6817C95.2946 26.5934 95.2038 26.4831 95.1131 26.439C95.0677 26.8141 95.0223 27.1672 95.0223 27.4983C94.9997 28.3148 94.9997 28.9328 95.0677 29.5507Z" fill="white"/>
<path opacity="0.4" d="M98.0167 33.0592C97.9259 32.8827 97.8352 32.7723 97.6537 32.6841L97.631 32.7503C97.4042 33.3241 97.1547 33.8758 96.9732 34.4275C96.9052 34.6261 96.8144 34.913 96.7464 35.1779C96.6103 35.862 96.4968 36.2592 96.202 36.502C95.9524 36.6785 95.7256 36.7668 95.1812 36.7668C94.7275 36.7668 94.4099 36.7448 93.5933 36.6565C93.4345 36.6344 92.7313 36.5682 92.1869 36.5241C90.9847 36.4579 89.2607 36.4579 88.5575 36.4579C86.2891 36.4358 80.777 36.6344 80.777 36.6344V35.6634L80.7996 34.3834L81.4575 34.4496C81.5482 34.2289 81.6162 34.0523 81.7297 33.8317C81.8658 33.5448 81.9338 33.1696 81.7977 32.8827C81.707 32.7061 81.5709 32.5737 81.4121 32.4634L81.3667 32.5517C81.0945 33.1475 80.8677 33.6551 80.6408 34.2289C80.5728 34.4275 80.4367 34.8468 80.3686 35.1337C80.1872 35.8399 80.0511 36.2372 79.7335 36.4799C79.2571 36.833 78.3271 36.8551 76.4897 36.6785C75.1967 36.5682 73.1098 36.6123 71.9983 36.6344C71.2271 36.6565 70.0021 36.7006 69.0494 36.7448C68.0967 36.7889 64.921 36.9654 64.921 36.9654L64.989 35.9503C64.8529 36.1268 64.7622 36.2813 64.7622 36.502L64.7168 37.3627C64.7168 37.6717 64.8302 37.8923 65.0344 38.091C65.2385 38.2896 65.5334 38.3779 65.8056 38.3558C66.9398 38.2675 68.7092 38.1792 71.9076 38.0689C75.5597 37.9585 76.2402 38.0689 76.7846 38.113C78.5766 38.2454 79.4159 38.2675 80.0284 37.8261C80.2325 37.6717 80.3686 37.473 80.4821 37.2082C80.5274 37.4289 80.6635 37.6275 80.8223 37.782C81.0265 37.9806 81.2987 38.0468 81.5936 38.0248L82.138 38.0027C84.8374 37.9144 87.2192 37.8482 88.739 37.8482C89.7597 37.8482 90.7125 37.8703 91.9147 37.9144C92.3003 37.9144 92.9355 38.0248 93.4572 38.0689C94.2511 38.1572 94.6368 38.1572 95.1131 38.1572C95.7256 38.1572 96.1112 38.0689 96.4515 37.8261C96.8825 37.5172 97.0186 37.0317 97.1774 36.2813C97.2227 36.0165 97.3135 35.7296 97.3588 35.553C97.5403 35.0234 97.7898 34.4275 98.0167 33.8537C98.1754 33.6551 98.1528 33.3461 98.0167 33.0592Z" fill="white"/>
<path opacity="0.4" d="M83.1585 31.2055C83.1812 30.5434 83.2719 28.3586 83.3173 26.7475C83.3627 25.1365 83.4307 23.8565 83.408 23.1944C83.408 22.7972 83.34 22.5544 83.2719 22.5103C83.2266 22.4882 83.0678 22.3337 82.2738 22.3337L81.4119 22.3558V21.3848C81.2531 21.5834 81.1623 21.8703 81.1623 22.113L81.1396 22.753C81.1396 23.3268 81.5933 23.7682 82.2058 23.7682C82.2058 23.7682 82.2058 23.7682 82.2285 23.7682H82.3419C82.8409 23.7682 83.0451 23.8344 83.1131 23.8565C83.1358 23.9006 83.1358 24.0551 83.1585 24.2758C83.1812 24.9379 83.0905 27.2772 83.0905 27.873C83.0905 27.873 83.0451 29.3517 82.9997 30.2123C82.977 31.051 82.9317 31.8455 82.9317 32.3089C82.9317 32.7723 82.8636 33.3682 82.7956 33.7655C82.977 33.1917 83.1358 32.3089 83.1585 31.2055Z" fill="white"/>
<path opacity="0.4" d="M96.7238 32.4194L96.6104 32.7063C96.6557 32.6181 96.7011 32.5077 96.7238 32.4194Z" fill="white"/>
<path opacity="0.4" d="M96.6782 25.0263C96.5874 24.4967 96.5647 24.0774 96.4967 23.5477C96.474 23.3932 96.474 22.996 96.474 22.7753C96.4513 22.047 96.4967 21.6277 96.0884 21.2746C96.0657 21.2525 96.0657 21.2525 96.043 21.2305C96.0657 21.385 96.0657 21.5615 96.043 21.7822C96.043 22.1132 96.1791 23.5036 96.2472 24.0332L96.3379 24.8056L93.9788 24.9381L93.9107 24.2098C93.82 23.4374 93.4798 23.2608 93.2529 23.1284C92.9807 22.996 92.3456 22.7753 89.9638 22.7753C89.1245 22.7753 88.2398 22.7753 87.2871 22.7974C87.3097 23.3491 87.2644 26.0636 87.2417 26.7477C87.4005 26.7477 87.5593 26.7477 87.7407 26.7477C87.7407 26.5712 87.7407 24.4305 87.7407 24.2318C88.5574 24.2098 89.3967 24.2098 90.0999 24.2098C92.5497 24.2098 93.0034 24.4305 93.1622 24.5187C93.2075 24.5408 93.3436 24.585 93.4571 24.7394C93.5705 24.8939 93.6612 25.1808 93.6612 25.3794C93.6839 25.7767 93.9561 26.0636 94.2964 26.2181L94.9088 26.3063L95.6347 26.2622C95.9523 26.2401 96.2699 26.0636 96.474 25.8429C96.6782 25.6222 96.7235 25.3132 96.6782 25.0263Z" fill="white"/>
<path opacity="0.4" d="M156.608 30.2788C156.586 30.3009 156.563 30.345 156.541 30.3671C156.563 30.345 156.586 30.3009 156.608 30.2788Z" fill="white"/>
<path opacity="0.4" d="M143.021 34.2072C142.885 33.3686 142.84 32.7065 142.772 32.221L142.341 28.712C142.227 27.9396 141.819 24.872 141.683 24.0334C141.592 23.4817 141.456 23.1065 141.184 22.93C140.98 22.7755 140.617 22.5769 139.641 22.4886L138.938 22.4445L138.757 21.2969C138.53 21.5396 138.439 21.8486 138.484 22.1796L138.621 23.1065C138.689 23.592 139.12 23.9231 139.641 23.9672H139.709C140.662 24.0334 140.957 24.21 141.07 24.2762C141.252 24.4086 141.388 24.7176 141.456 25.181C141.592 26.0196 141.751 27.2334 142.046 29.6389C142.341 32.0445 142.636 34.4279 142.772 35.2886C142.953 36.5024 142.976 37.4072 142.931 37.9589C143.112 37.4955 143.362 36.4803 143.021 34.2072Z" fill="white"/>
<path opacity="0.4" d="M157.516 32.265C157.721 33.0374 158.174 34.8691 158.174 34.8691L155.452 34.6484L155.339 34.0084C155.225 33.4346 155.044 33.0815 154.613 32.8608C154.295 32.7063 153.388 32.3974 150.734 32.1546C149.486 32.0443 147.399 31.8236 147.399 31.8236C147.445 32.0884 148.261 37.8705 148.329 38.1574C148.42 38.1794 148.511 38.2236 148.647 38.2456C148.647 38.2015 147.944 33.4567 147.921 33.3022C149.078 33.4125 149.645 33.4787 150.847 33.5891C153.524 33.8319 154.341 34.1408 154.59 34.2512C154.817 34.3615 155.021 34.5601 155.135 35.1339L155.157 35.2443C155.248 35.7077 155.656 36.0829 156.155 36.105L157.244 36.1932C157.607 36.2153 157.947 36.0829 158.174 35.8181C158.401 35.5532 158.492 35.2001 158.401 34.8691C158.401 34.8691 157.993 33.4346 157.811 32.3091C157.698 31.5587 157.653 30.5877 157.63 30.0801C157.607 29.7491 157.471 29.4843 157.199 29.2856C157.153 30.036 157.312 31.4925 157.516 32.265Z" fill="white"/>
<path opacity="0.4" d="M161.758 37.5835C161.758 37.5835 161.35 39.0621 161.236 39.7463C161.191 40.0111 161.168 40.3863 161.146 40.7394C161.078 41.6663 161.055 42.0856 160.692 42.3504C160.488 42.5049 160.216 42.5711 159.807 42.5711C159.218 42.5711 157.788 42.2842 156.359 42.0194C155.633 41.8869 153.206 41.5118 149.463 41.2249C145.721 40.938 141.025 40.6511 141.025 40.6511L140.844 39.4594C140.617 39.7021 140.526 40.0552 140.571 40.3863L140.707 41.2469C140.776 41.7545 141.207 42.1297 141.728 42.1518C141.728 42.1518 147.944 42.5049 149.985 42.6814C151.301 42.8138 154.25 43.0345 155.928 43.3656C157.425 43.6525 159.331 44.0056 159.966 44.0056C160.465 44.0056 160.783 43.9173 161.055 43.7187C161.554 43.3656 161.599 42.8138 161.667 41.8649C161.69 41.5338 161.713 41.1587 161.758 40.9159C161.872 40.2538 162.03 39.5476 162.234 38.8635C162.325 38.378 162.166 37.8263 161.758 37.5835Z" fill="white"/>
<path opacity="0.4" d="M158.492 27.2554C158.288 26.5713 158.129 25.9313 157.947 25.2471C157.879 25.0264 157.811 24.6292 157.743 24.3202C157.584 23.5257 157.562 23.1285 157.199 22.7754C157.244 22.9519 157.335 23.7023 157.539 24.3864C157.743 25.0706 158.333 27.2333 158.333 27.2333L155.656 27.1671L155.52 26.6595C155.271 25.7988 154.84 25.1368 154.182 24.7837C153.66 24.5188 152.639 24.1878 149.668 23.923C148.624 23.8347 147.467 23.7464 146.22 23.6581C146.424 24.585 146.878 27.6526 146.991 29.0209C147.104 29.0209 147.218 29.043 147.331 29.043C147.286 28.6457 146.787 25.3575 146.741 25.1147C147.808 25.1809 148.76 25.2692 149.69 25.3354C152.753 25.6002 153.773 25.9754 154.159 26.174C154.726 26.483 155.089 26.9685 155.293 27.7409C155.339 27.8733 155.407 28.0719 155.497 28.1823C155.702 28.425 155.996 28.5795 156.314 28.6016H157.403C157.766 28.6237 158.083 28.4692 158.31 28.1823C158.537 27.9395 158.605 27.5864 158.492 27.2554Z" fill="white"/>
<path opacity="0.4" d="M55.4616 25.4014C55.4616 25.4014 55.8019 25.3793 55.9153 25.3572C56.2329 25.3352 56.6185 25.291 56.8454 25.291C57.8208 25.291 58.3879 25.3572 58.8642 25.6883C59.1818 25.931 59.3406 26.1738 59.3633 26.571C59.522 26.3062 59.6355 26.0193 59.6581 25.7103C59.7035 25.0924 59.4994 24.6731 59.023 24.32C58.4786 23.9227 57.7754 23.8345 56.7092 23.8345C56.4597 23.8345 55.2121 23.9669 55.076 23.989C55.0306 24.32 54.9853 24.8717 54.9626 25.269C54.9399 25.7324 54.8945 26.1959 54.8492 26.6372C54.7811 27.1448 54.7358 27.6083 54.6677 27.9834C54.6677 28.0055 54.645 28.0717 54.645 28.0717C54.645 28.0717 54.9853 28.0717 55.2121 28.0496C55.2575 27.9614 55.439 25.6883 55.4616 25.4014Z" fill="white"/>
<path opacity="0.4" d="M54.668 33.501C54.6907 33.2361 54.7361 32.8168 54.8041 32.2651C54.8268 32.1327 54.8268 32.0003 54.8495 31.8679C54.9402 31.8679 55.8022 31.7796 56.0971 31.7796C58.1386 31.7796 58.9779 31.9782 59.4316 32.243C59.7719 32.4417 60.1121 32.7065 60.0667 33.4789C60.2255 33.192 60.3163 32.861 60.3616 32.4858C60.4297 31.6913 60.1121 31.1837 59.4997 30.8086C58.7511 30.3672 57.7076 30.301 55.9837 30.323C55.6888 30.323 54.5092 30.3892 54.4412 30.3892V30.4113C54.4185 30.632 54.4185 30.8748 54.3731 31.0955C54.3051 31.6692 54.2597 32.0665 54.237 32.3313C54.1916 32.7727 54.1463 33.2141 54.1236 33.6996C54.1009 33.8541 54.0782 34.0968 54.0329 34.3617C54.0102 34.5603 53.9421 34.8913 53.9194 35.1341C54.1009 35.1561 54.3277 35.1782 54.4865 35.2003H54.5092C54.5319 35.0458 54.5546 34.9355 54.5546 34.8251C54.5999 34.3837 54.6226 33.9423 54.668 33.501Z" fill="white"/>
<path opacity="0.4" d="M119.771 27.5643C119.544 27.8292 119.113 28.0499 118.614 28.3368C119.158 28.5133 119.635 28.7119 120.088 28.8885C120.134 28.8443 120.156 28.8223 120.202 28.7781C120.859 28.0278 121.2 27.0788 121.086 26.0416C121.018 25.3795 120.859 24.7837 120.497 24.2319C120.587 24.4747 120.633 24.7616 120.655 25.0485C120.746 26.0195 120.383 26.8802 119.771 27.5643Z" fill="white"/>
<path opacity="0.4" d="M123.014 33.3903C122.946 32.6841 122.742 32.022 122.379 31.4482C122.47 31.7351 122.538 32.022 122.583 32.331C122.765 33.92 122.061 35.222 120.564 36.1048C119.339 36.8331 117.683 37.2524 115.642 37.2524C115.392 37.2524 115.143 37.2524 114.893 37.2303C114.508 37.2082 113.782 37.1641 112.58 37.0758C111.491 37.0096 110.561 36.9434 109.835 36.9213C109.54 36.9213 109.132 36.8993 108.587 36.8993C108.043 36.8993 107.544 36.8993 106.863 36.9213H106.183L106.137 35.8841C105.956 36.1048 105.842 36.3255 105.865 36.6124L105.888 37.3627C105.933 37.9144 106.364 38.3558 106.931 38.3558C106.931 38.3558 108.451 38.3338 109.948 38.3779C111.082 38.4 112.194 38.5103 112.67 38.5324C113.895 38.6207 114.598 38.6648 115.007 38.6869C115.279 38.7089 115.551 38.7089 115.801 38.7089C117.91 38.7089 119.612 38.2896 120.882 37.4731C122.447 36.502 123.15 35.0896 123.014 33.3903Z" fill="white"/>
<path opacity="0.4" d="M108.156 31.6029C108.134 30.9408 108.134 30.367 108.111 29.9919L108.02 27.1229C107.975 26.527 107.907 24.1657 107.862 23.5036C107.839 23.1505 107.748 22.8857 107.635 22.7753C107.567 22.7312 107.363 22.5767 106.569 22.5546H105.797L105.752 21.5615C105.571 21.7822 105.48 22.047 105.502 22.3339L105.525 23.0181C105.571 23.5698 106.024 23.9891 106.591 24.0112H106.705C107.408 24.0332 107.521 24.1657 107.521 24.1657C107.521 24.1657 107.589 24.2098 107.612 24.585C107.725 26.6595 107.748 27.4981 107.771 28.2705C107.794 29.065 107.884 32.1988 107.907 32.7505C107.93 33.3022 107.907 33.9643 107.862 34.3615C108.043 33.9643 108.247 33.2139 108.156 31.6029Z" fill="white"/>
<path opacity="0.4" d="M112.217 31.0512C112.534 31.0512 112.716 31.0512 113.011 31.0512C114.712 31.1174 116.005 31.3822 116.821 31.8457C117.502 32.2429 117.842 32.7505 117.933 33.5008C117.933 33.545 117.933 33.567 117.933 33.6112C118.137 33.2801 118.228 32.8829 118.16 32.3974C118.069 31.5367 117.661 30.9188 116.889 30.4774C116.027 29.9698 114.871 29.727 113.101 29.6608C112.806 29.6388 112.489 29.6388 112.171 29.6388C112.08 29.6388 111.944 29.6388 111.808 29.6167C111.786 29.6167 111.763 29.6167 111.74 29.6167C111.808 30.4553 111.99 33.7215 111.967 34.4277C112.103 34.4498 112.217 34.4719 112.375 34.4939C112.375 34.2291 112.217 31.0512 112.217 31.0512Z" fill="white"/>
<path opacity="0.4" d="M111.854 24.519C111.854 24.519 112.58 24.4969 112.829 24.519C113.873 24.5631 114.712 24.7838 115.302 25.2031C115.801 25.5341 116.05 25.9534 116.118 26.4831C116.118 26.4831 116.118 26.461 116.141 26.461C116.345 26.1521 116.413 25.821 116.391 25.4238C116.323 24.7617 116.05 24.2321 115.461 23.8127C114.803 23.3714 114.009 23.1286 112.897 23.0845C112.648 23.0845 112.33 23.0845 111.99 23.0845C111.899 23.0845 111.763 23.0845 111.627 23.0845C111.559 23.0845 111.491 23.0845 111.423 23.0845C111.491 23.6583 111.65 26.6155 111.65 27.2334C111.672 27.2334 111.899 27.2334 112.058 27.2334C112.013 27.0569 111.854 24.519 111.854 24.519Z" fill="white"/>
<path opacity="0.4" d="M125.464 32.2428C125.419 31.8896 125.26 29.9255 125.124 28.0055C124.988 26.3062 124.852 24.5848 124.806 24.2759C124.761 23.9007 124.67 23.6359 124.534 23.5255C124.443 23.4593 124.217 23.3048 123.423 23.2607L122.674 23.2386L122.583 22.2676C122.379 22.4883 122.266 22.7972 122.311 23.1062L122.379 23.8124C122.447 24.32 122.856 24.6731 123.4 24.7172H123.513C124.262 24.7614 124.466 24.96 124.466 24.96C124.466 24.96 124.512 25.0703 124.58 25.4896C124.67 26.1517 124.806 27.7628 124.897 29.0869C124.988 30.411 125.215 33.1255 125.237 33.6331C125.283 34.1407 125.283 34.9572 125.26 35.3765C125.419 35.0014 125.668 34.0524 125.464 32.2428Z" fill="white"/>
<path opacity="0.4" d="M137.26 30.1462C137.26 30.2124 137.759 32.7062 137.759 32.7062L135.332 32.5958L135.241 31.9117C135.173 31.4262 135.014 31.2496 134.833 31.1613C134.651 31.0731 133.993 30.8524 131.861 30.6979C130.886 30.6317 130.341 30.5875 129.343 30.5213C129.343 30.5213 129.797 34.6703 129.82 35.2441C129.933 35.2662 130.069 35.2882 130.183 35.2882C130.16 35.1779 129.842 32.0441 129.842 31.9779C130.636 32.022 131.09 32.0662 131.952 32.1103C134.13 32.2427 134.629 32.4855 134.719 32.5296C134.81 32.5738 134.946 32.64 134.992 33.0151L135.014 33.1034C135.082 33.611 135.468 33.9862 135.99 34.0082L136.92 34.0744C137.26 34.0965 137.6 33.942 137.804 33.6993C138.031 33.4565 138.122 33.1034 138.031 32.7944C138.031 32.7944 137.804 31.6469 137.714 31.0289C137.623 30.411 137.646 29.462 137.646 29.0648C137.646 28.6896 137.487 28.3807 137.192 28.2041C137.192 28.5351 137.192 28.822 137.192 29.131C137.192 29.4841 137.215 29.8593 137.26 30.1462Z" fill="white"/>
<path opacity="0.4" d="M140.458 34.6924C140.458 34.6924 140.095 35.84 139.959 36.3696C139.914 36.5682 139.868 36.8772 139.846 37.142C139.755 37.8703 139.71 38.2455 139.392 38.4882C139.188 38.6427 138.916 38.7089 138.53 38.7089C138.054 38.7089 137.509 38.6648 136.443 38.4882C135.876 38.4 135.309 38.3117 134.901 38.2676C133.676 38.1572 132.474 38.0689 131.43 37.9807C129.865 37.8703 123.672 37.6276 123.672 37.6276L123.559 36.6345C123.355 36.8551 123.264 37.1641 123.287 37.4731L123.355 38.1131C123.423 38.6427 123.808 39.062 124.353 39.0841C124.353 39.0841 130.046 39.3048 131.612 39.4151C132.655 39.4813 134.923 39.6358 135.468 39.7462C136.897 40.011 138.076 40.1434 138.621 40.1434C139.097 40.1434 139.392 40.0551 139.664 39.8565C140.118 39.5255 140.163 39.062 140.277 38.2896C140.299 38.0248 140.368 37.6938 140.413 37.5172C140.526 36.9876 140.708 36.4358 140.889 35.8841C141.048 35.4207 140.867 34.9351 140.458 34.6924Z" fill="white"/>
<path opacity="0.4" d="M138.462 26.7038C138.326 26.1521 138.054 24.9162 137.985 24.4748C137.917 24.0334 137.872 23.3052 137.486 22.9741C137.509 23.1065 137.6 23.901 137.645 24.0776C137.759 24.6072 138.235 26.6155 138.235 26.6155L135.831 26.5934L135.672 25.9755C135.513 25.3355 135.309 25.0265 134.855 24.7838C134.538 24.6293 133.789 24.3203 131.339 24.1658C130.545 24.1217 129.638 24.0334 128.73 24.0114C128.776 24.4527 129.093 27.3658 129.093 28.0058C129.207 28.0058 129.343 28.0279 129.479 28.0279C129.456 27.8072 129.23 25.6003 129.207 25.4679C129.978 25.5121 130.772 25.5562 131.453 25.6003C133.925 25.7548 134.583 26.0417 134.81 26.1741C135.014 26.2845 135.263 26.5052 135.422 27.1231C135.422 27.1452 135.445 27.1893 135.445 27.2114C135.513 27.5203 135.785 27.7631 136.035 27.9176C136.284 28.0721 136.942 28.0058 137.282 27.9838C137.623 27.9617 138.031 27.8514 138.235 27.5865C138.462 27.3658 138.553 27.0348 138.462 26.7038Z" fill="white"/>
<path opacity="0.4" d="M31.8706 32.1768C30.9179 31.6912 29.5342 31.603 27.3339 31.8016C26.9482 31.8457 26.5626 31.8678 26.177 31.9119L25.2016 31.9781C25.2016 32.0664 25.1789 32.1768 25.1789 32.265C25.1562 32.5299 24.2489 37.6719 24.0674 38.4664C24.2715 38.4885 24.4984 38.4664 24.7025 38.4885C24.7706 38.1575 25.5645 33.6775 25.5872 33.4126L26.3358 33.3685C26.7214 33.3244 27.107 33.2802 27.47 33.2581C30.1013 33.0154 31.1674 33.3244 31.7799 33.6333C32.2562 33.8761 32.6646 34.2954 32.5738 35.3988C32.6872 35.0899 32.8233 34.6706 32.846 34.3175C33.0275 32.905 32.3923 32.4416 31.8706 32.1768Z" fill="white"/>
<path opacity="0.4" d="M31.9612 24.0773C31.2807 23.6139 30.3507 23.4594 28.967 23.5697C28.6494 23.5918 28.2638 23.658 27.8328 23.7242C27.6967 23.7463 27.5379 23.7684 27.3564 23.7904C27.175 23.8125 26.9027 23.8566 26.7213 23.8787C26.6305 24.2539 25.7686 29.3077 25.7686 29.3959C25.95 29.3739 26.1542 29.3739 26.4264 29.3518C26.4718 29.109 27.0162 25.7104 27.0842 25.2911C27.2203 25.269 28.8536 25.0484 29.1484 25.0263C30.4414 24.9159 31.2127 25.0263 31.689 25.3353C32.0066 25.5559 32.483 25.9532 32.3695 26.6594C32.8459 25.9532 32.8232 24.6732 31.9612 24.0773Z" fill="white"/>
<path d="M60.4297 4.61221L61.3597 4.34738L64.7169 7.15014V3.33221L65.6243 3.06738V9.13635L65.0118 9.3129L61.3597 6.20118V10.306L60.4524 10.5708V4.61221H60.4297Z" fill="white"/>
<path d="M71.4769 1.65527L74.3124 7.21665L72.7926 7.50355L72.044 6.02493L69.7075 6.48838L68.9136 8.27596L67.9155 8.47458L70.8644 1.78769L71.4769 1.65527ZM69.9571 5.87045L71.7718 5.51734L70.8871 3.75183L69.9571 5.87045Z" fill="white"/>
<path d="M81.2988 0.396973V0.904559L79.1892 1.14732V6.62042L77.6921 6.79697V1.32387L75.5825 1.54456V1.03697L81.2988 0.396973Z" fill="white"/>
<path d="M84.0435 0.242476L85.5406 0.17627V6.15696L84.0435 6.22317V0.242476Z" fill="white"/>
<path d="M91.8922 6.24542C91.552 6.24542 91.2344 6.20128 90.9395 6.11301C90.6446 6.02473 90.3497 5.93646 90.1002 5.78197C89.8507 5.64956 89.6012 5.47301 89.397 5.29646C89.1929 5.09784 89.0114 4.87715 88.8526 4.65646C88.6938 4.4137 88.5804 4.14887 88.5123 3.88404C88.4216 3.59715 88.3989 3.31025 88.3989 3.00128C88.3989 2.69232 88.4443 2.40542 88.5123 2.14059C88.6031 1.87577 88.7165 1.63301 88.8526 1.41232C89.0114 1.19163 89.1929 0.993007 89.397 0.816455C89.6012 0.639904 89.8507 0.485421 90.1002 0.375076C90.3497 0.264731 90.6446 0.154386 90.9395 0.110249C91.2344 0.0661106 91.552 0.0219727 91.8922 0.0219727C92.2325 0.0219727 92.5501 0.0661106 92.845 0.154386C93.1398 0.220593 93.4347 0.330938 93.6843 0.463352C93.9338 0.595766 94.1833 0.750249 94.3875 0.948869C94.5916 1.12542 94.7731 1.34611 94.9319 1.5668C95.0907 1.78749 95.2041 2.05232 95.2721 2.31715C95.3629 2.58197 95.3855 2.86887 95.3855 3.17783C95.3855 3.4868 95.3402 3.79577 95.2721 4.06059C95.1814 4.34749 95.068 4.59025 94.9319 4.83301C94.7958 5.07577 94.5916 5.27439 94.3875 5.45094C94.1833 5.62749 93.9338 5.78197 93.6843 5.91439C93.4347 6.0468 93.1398 6.13508 92.845 6.20128C92.5501 6.22335 92.2325 6.26749 91.8922 6.24542ZM91.8922 5.73783C92.1871 5.73783 92.4593 5.6937 92.6862 5.56128C92.913 5.42887 93.1172 5.25232 93.2533 5.03163C93.4121 4.78887 93.5255 4.52404 93.6162 4.19301C93.6843 3.86197 93.7296 3.50887 93.7296 3.1337C93.7296 2.75852 93.6843 2.40542 93.6162 2.09646C93.5482 1.78749 93.4121 1.50059 93.2533 1.2799C93.0945 1.05921 92.913 0.860593 92.6862 0.72818C92.4593 0.595766 92.1871 0.529559 91.8922 0.529559C91.5973 0.529559 91.3251 0.573697 91.0983 0.706111C90.8715 0.838524 90.6673 0.993007 90.5312 1.2137C90.3951 1.43439 90.259 1.69921 90.1909 2.00818C90.1229 2.31715 90.0775 2.67025 90.0775 3.04542C90.0775 3.42059 90.1229 3.7737 90.1909 4.10473C90.259 4.43577 90.3951 4.72266 90.5312 4.96542C90.69 5.20818 90.8715 5.38473 91.0983 5.53921C91.3251 5.67163 91.5973 5.73783 91.8922 5.73783Z" fill="white"/>
<path d="M98.1985 0.441406L99.1512 0.551751L102.644 4.76692V0.971061L103.575 1.08141V7.15037L102.917 7.08416L99.1285 2.42761V6.53244L98.1758 6.4221V0.441406H98.1985Z" fill="white"/>
<path d="M109.472 2.07431L112.285 8.78327L110.788 8.47431L110.039 6.68672L107.68 6.17914L106.886 7.65776L105.888 7.43707L108.814 1.94189L109.472 2.07431ZM107.952 5.67155L109.767 6.04672L108.882 3.9281L107.952 5.67155Z" fill="white"/>
<path d="M114.553 3.42041L115.982 3.86179V9.22455L118.977 10.1514V10.7694L114.553 9.42317V3.42041Z" fill="white"/>
</g>
<defs>
<clipPath id="clip0_201_164">
<rect width="178" height="64" fill="white"/>
</clipPath>
</defs>
</svg>
